<svg width="45" height="45" viewBox="0 0 45 45" fill="none" xmlns="http://www.w3.org/2000/svg">
<path d="M6.35355 11.6464C6.15829 11.4512 5.84171 11.4512 5.64645 11.6464C5.45118 11.8417 5.45118 12.1583 5.64645 12.3536L6.35355 11.6464ZM17.5 23.5L17.1464 23.8536L17.479 24.1861L17.8313 23.8745L17.5 23.5ZM30.8313 12.3745C31.0381 12.1915 31.0575 11.8755 30.8745 11.6687C30.6915 11.4619 30.3755 11.4425 30.1687 11.6255L30.8313 12.3745ZM5.64645 12.3536L17.1464 23.8536L17.8536 23.1464L6.35355 11.6464L5.64645 12.3536ZM17.8313 23.8745L30.8313 12.3745L30.1687 11.6255L17.1687 23.1255L17.8313 23.8745Z" fill="#FF0000" fill-opacity="0.8"/>
<path d="M6.35355 11.6464C6.15829 11.4512 5.84171 11.4512 5.64645 11.6464C5.45118 11.8417 5.45118 12.1583 5.64645 12.3536L6.35355 11.6464ZM17.5 23.5L17.1464 23.8536L17.479 24.1861L17.8313 23.8745L17.5 23.5ZM30.8313 12.3745C31.0381 12.1915 31.0575 11.8755 30.8745 11.6687C30.6915 11.4619 30.3755 11.4425 30.1687 11.6255L30.8313 12.3745ZM5.64645 12.3536L17.1464 23.8536L17.8536 23.1464L6.35355 11.6464L5.64645 12.3536ZM17.8313 23.8745L30.8313 12.3745L30.1687 11.6255L17.1687 23.1255L17.8313 23.8745Z" fill="#FF0000" fill-opacity="0.8"/>
</svg>
