<svg width="18" height="17" viewBox="0 0 18 17" fill="none" xmlns="http://www.w3.org/2000/svg">
<path opacity="0.8" d="M17.2236 1.44721C17.4706 1.32372 17.5707 1.02338 17.4472 0.776393C17.3237 0.529404 17.0234 0.429292 16.7764 0.552786L17.2236 1.44721ZM2 8.5L1.77639 8.05279L0.881966 8.5L1.77639 8.94721L2 8.5ZM16.7764 16.4472C17.0234 16.5707 17.3237 16.4706 17.4472 16.2236C17.5707 15.9766 17.4706 15.6763 17.2236 15.5528L16.7764 16.4472ZM16.7764 0.552786L1.77639 8.05279L2.22361 8.94721L17.2236 1.44721L16.7764 0.552786ZM1.77639 8.94721L16.7764 16.4472L17.2236 15.5528L2.22361 8.05279L1.77639 8.94721Z" fill="black"/>
</svg>
