<svg width="18" height="17" viewBox="0 0 18 17" fill="none" xmlns="http://www.w3.org/2000/svg">
<path opacity="0.8" d="M0.776393 15.5528C0.529404 15.6763 0.429292 15.9766 0.552786 16.2236C0.676281 16.4706 0.976618 16.5707 1.22361 16.4472L0.776393 15.5528ZM16 8.5L16.2236 8.94721L17.118 8.5L16.2236 8.05279L16 8.5ZM1.22361 0.552786C0.976618 0.429292 0.676281 0.529404 0.552786 0.776393C0.429292 1.02338 0.529404 1.32372 0.776393 1.44721L1.22361 0.552786ZM1.22361 16.4472L16.2236 8.94721L15.7764 8.05279L0.776393 15.5528L1.22361 16.4472ZM16.2236 8.05279L1.22361 0.552786L0.776393 1.44721L15.7764 8.94721L16.2236 8.05279Z" fill="black"/>
</svg>
